<?xml version="1.0" encoding="utf-8"?>
<!-- Generator: Adobe Illustrator 21.1.0, SVG Export Plug-In . SVG Version: 6.00 Build 0)  -->
<svg version="1.1" id="Layer_1" xmlns="http://www.w3.org/2000/svg" xmlns:xlink="http://www.w3.org/1999/xlink" x="0px" y="0px"
	 viewBox="0 0 20 20" style="enable-background:new 0 0 20 20;" xml:space="preserve">
<style type="text/css">
	.st0{fill:url(#XMLID_2_);}
	.st1{fill:url(#XMLID_3_);}
	.st2{fill:url(#XMLID_4_);}
	.st3{fill:url(#XMLID_5_);}
</style>
<g>
	<g id="XMLID_1320_">
		<g id="XMLID_1590_">
			<linearGradient id="XMLID_2_" gradientUnits="userSpaceOnUse" x1="5.1347" y1="-2.1164" x2="21.0855" y2="17.3323">
				<stop  offset="0" style="stop-color:#2E4051"/>
				<stop  offset="1" style="stop-color:#37C0C9"/>
			</linearGradient>
			<path id="XMLID_1667_" class="st0" d="M13,9.3l-0.8-1.4c-0.3-0.6,0-1.1,0.3-1.4l0,0c0.6-0.3,1.1,0,1.4,0.3l0.8,1.4
				c0.3,0.6,0,1.1-0.3,1.4l0,0C13.8,9.9,13.2,9.6,13,9.3z"/>
			<linearGradient id="XMLID_3_" gradientUnits="userSpaceOnUse" x1="-1.2559" y1="3.1248" x2="14.6949" y2="22.5735">
				<stop  offset="0" style="stop-color:#2E4051"/>
				<stop  offset="1" style="stop-color:#37C0C9"/>
			</linearGradient>
			<path id="XMLID_1666_" class="st1" d="M5.8,13.5L5,12.1c-0.3-0.6,0-1.1,0.3-1.4l0,0c0.6-0.3,1.1,0,1.4,0.3l0.8,1.4
				c0.3,0.6,0,1.1-0.3,1.4l0,0C6.9,14,6.4,14,5.8,13.5z"/>
			<linearGradient id="XMLID_4_" gradientUnits="userSpaceOnUse" x1="2.1024" y1="0.3705" x2="18.0532" y2="19.8192">
				<stop  offset="0" style="stop-color:#2E4051"/>
				<stop  offset="1" style="stop-color:#37C0C9"/>
			</linearGradient>
			<path id="XMLID_1607_" class="st2" d="M17.4,16.3l-5.8,3.3c-1.1,0.6-2.2,0.6-3.3,0l-5.8-3.3c-1.1-0.6-1.7-1.7-1.7-2.8v-7
				c0-1.1,0.6-2.2,1.7-2.8l5.8-3.3c1.1-0.6,2.2-0.6,3.3,0l5.8,3.3c1.1,0.6,1.7,1.7,1.7,2.8v6.9C19.1,14.6,18.5,15.7,17.4,16.3z
				 M16,12.4V7.9c0-0.8-0.3-1.4-1.1-1.9L11,3.8c-0.6-0.3-1.4-0.3-2.2,0L5,6C4.4,6.5,3.9,7.1,3.9,7.9v4.4c0,0.8,0.3,1.4,1.1,1.9
				l3.9,2.2c0.6,0.3,1.4,0.3,2.2,0l3.9-2.2C15.5,13.7,16,13.2,16,12.4z"/>
			<linearGradient id="XMLID_5_" gradientUnits="userSpaceOnUse" x1="2.0239" y1="0.4349" x2="17.9746" y2="19.8836">
				<stop  offset="0" style="stop-color:#2E4051"/>
				<stop  offset="1" style="stop-color:#37C0C9"/>
			</linearGradient>
			<circle id="XMLID_1606_" class="st3" cx="10" cy="10.1" r="1.9"/>
		</g>
	</g>
</g>
</svg>
