<svg id="Layer_1" data-name="Layer 1" xmlns="http://www.w3.org/2000/svg" viewBox="0 0 129.53 142.9"><defs><style>.cls-1{fill:#FFFFFF;}</style></defs><title>MediMe Logo</title><path class="cls-1" d="M118.75,27.83,75.54,2.89A21.55,21.55,0,0,0,54,2.89L10.78,27.83A21.57,21.57,0,0,0,0,46.5V96.4a21.54,21.54,0,0,0,10.78,18.66L54,140a21.55,21.55,0,0,0,21.55,0l43.21-24.95A21.54,21.54,0,0,0,129.53,96.4V46.5A21.57,21.57,0,0,0,118.75,27.83ZM107.54,87.4A15.16,15.16,0,0,1,100,100.52l-27.62,16a15.13,15.13,0,0,1-15.15,0l-27.62-16A15.14,15.14,0,0,1,22,87.4V55.5a15.14,15.14,0,0,1,7.58-13.12l27.62-16a15.13,15.13,0,0,1,15.15,0l27.62,16a15.14,15.14,0,0,1,7.58,13.12Z"/><path class="cls-1" d="M43.49,78a7.25,7.25,0,0,0-9.89-2.53h0a7.25,7.25,0,0,0-2.53,9.9l5.33,9A7.22,7.22,0,0,0,48.82,87Z"/><path class="cls-1" d="M58.41,60.73A12.49,12.49,0,1,0,75.52,65.1,12.49,12.49,0,0,0,58.41,60.73Z"/><path class="cls-1" d="M93.13,48.56a7.22,7.22,0,1,0-12.42,7.36l5.33,9a7.22,7.22,0,0,0,12.42-7.37Z"/></svg>
